<?xml version="1.0" encoding="UTF-8"?>
<svg id="Layer_2" data-name="Layer 2" xmlns="http://www.w3.org/2000/svg" viewBox="0 0 471.98 87.43">
  <defs>
    <style>
      .cls-1 {
        fill: #09629e;
      }

      .cls-2 {
        fill: #0a629e;
      }

      .cls-3 {
        fill: #89aac2;
      }

      .cls-4 {
        fill: #09619e;
      }

      .cls-5 {
        fill: #09629f;
      }

      .cls-6 {
        fill: #0a629f;
      }

      .cls-7 {
        fill: #08619e;
      }

      .cls-8 {
        fill: #fcfdfe;
      }
    </style>
  </defs>
  <g id="Layer_2-2" data-name="Layer 2">
    <g id="Layer_1-2" data-name="Layer 1-2">
      <g>
        <path class="cls-1" d="m1.95,86.11c-.53-.04-1.06-.08-1.59-.11-.12-.58-.24-1.15-.36-1.73h.02c.75-.59,1.49-1.17,2.24-1.75,6.68-3.11,13.22-6.57,20.09-9.19,4.29-1.64,9.07-1.97,13.62-2.95,11.59-2.51,19.92-13.37,20.91-24.75.58-6.69,1.73-13.66-2.07-20.41-3.22-5.7-7.69-9.07-13.57-10.57-4.1-1.04-8.49-.94-12.76-1.31-4.27-.37-5.69,2.44-6.33,5.9-2.07,11.05-3.92,22.15-6.25,33.15-.37,1.76-2.46,3.73-4.24,4.48-3.09,1.31-6.54,1.74-11.21,2.86,1.32-7.28,2.46-13.89,3.73-20.47C6.46,27.36,8.74,15.45,11.29,3.6c.27-1.28,2.29-3.15,3.45-3.12,12.77.36,25.66-1.78,38.14,3.58,9.1,3.91,14.55,10.63,17.25,19.42,3.65,11.87,2.28,23.65-2.64,35.19-6.13,14.39-16.74,22.94-31.92,25.62-6.32,1.12-12.84,1.1-19.27,1.6-3.46-.01-6.92-.02-10.38-.03-.89.07-1.78.15-2.67.22-.43.01-.87.02-1.3.03Z"/>
        <path class="cls-5" d="m146.27,23.3c-4.2,20.96-8.27,41.31-12.33,61.57-3.17.5-6.21,1.1-9.28,1.42-4.23.45-5.33-1.63-3.58-6.78-3.46,1.66-6.14,2.8-8.67,4.2-9.65,5.36-25.97,3.87-32.78-7.05-7.31-11.74-6.33-30.54,4.82-42.66,9.45-10.27,20.92-15.27,34.92-11.46,2.97.81,5.56,3.4,8.06,5.49,2.02,1.69,3.96,2.08,4.34-.72.5-3.74,2.75-3.98,5.49-4.01,2.94-.04,5.88,0,9.02,0h-.01Zm-35.42,10.34c-2.97.75-6.07,1.18-8.88,2.31-7.66,3.1-11.4,9.81-13.48,17.11-3.28,11.56,4.92,21.86,15.73,22.28,11.15.43,18.66-6.44,22.78-17.79,3.79-10.45-.78-24.99-16.15-23.91Z"/>
        <path class="cls-6" d="m387.85,30.47c2.03-5.2,7.25-7.49,15.64-6.88-1.48,6.96-2.94,13.83-4.4,20.7-1.31,6.17-2.66,12.34-3.93,18.52-1.39,6.74-2.54,13.53-4.19,20.19-.33,1.35-2.3,2.72-3.8,3.23-1.64.56-3.63.02-5.46.14-4.34.29-5.38-1.64-3.41-6.54-2.47.83-4.54,1.05-6.01,2.1-12.32,8.81-28.18,6.9-36.26-7.04-11.81-20.38,4.21-49.76,26.29-52.82,9.34-1.3,16.72.23,23.13,6.95.54.57,1.39.85,2.41,1.45h-.01Zm-20.34,3.36c-3.02.6-6.5.43-8.96,1.93-6.88,4.2-11.76,10.22-13.23,18.44-1.35,7.53,1.12,13.76,7.18,18.27,5.45,4.06,11.53,3.94,17.59,1.36,6.77-2.88,10.55-8.2,13.3-14.99,5.58-13.8-1.09-24.58-15.87-25.02h0Z"/>
        <path class="cls-6" d="m239.99,30.42c.6-.39,1.01-.51,1.11-.75.83-2.02,1.31-5.63,2.43-5.83,3.98-.72,8.17-.28,12.69-.28-1.34,7.4-2.54,14.43-3.89,21.43-1.31,6.81-2.7,13.6-4.17,20.38-1.3,6.03-2.36,12.16-4.26,18-1.66,5.09-6.55,2.88-9.97,2.71-1.4-.07-2.64-3.12-4.63-5.69-1.36.67-3.81,1.74-6.12,3.05-19.31,10.93-37.72-3.12-38.4-23.22-.56-16.79,11.83-33.09,26.13-37.07,10.77-3,20.22-3.52,29.07,7.27h0Zm-21.16,2.91c-.15,0-2.02-.29-3.4.39-8.74,4.31-15.29,10.63-17.08,20.66-2.08,11.68,6.38,21.74,17.36,20.98,9.43-.65,18.41-6.38,21.52-19.71,3.02-12.94-3.85-22.25-18.4-22.32h0Z"/>
        <path class="cls-2" d="m463.61,74.87c-3.67,5.37-9.07,7.73-14.7,9.52-7.66,2.43-15.3,4.2-23.57,2.12-15.79-3.98-22.93-16.36-21.08-29.85,2.08-15.22,10.14-26.44,24.55-32.6,10.2-4.35,20.68-3.57,30.67,0,4.33,1.55,7.66,5.85,12.5,9.75-4.8,2.34-8.02,4.14-11.43,5.44-1.19.45-3.21.14-4.25-.64-7.82-5.87-16.58-6.19-24.56-2.03-9.56,4.97-14.69,13.68-13.57,24.93.74,7.4,10.57,15.22,18.96,13.47,5.56-1.16,10.64-2.46,15.27-6,1.12-.86,4.5.81,6.59,1.82,1.54.74,2.69,2.3,4.62,4.06h0Z"/>
        <path class="cls-7" d="m283.59,86.38c-4.75,0-9.57.47-14.25-.11-7.03-.88-9.67-5.49-7.86-13.94,2.8-13.07,5.77-26.1,8.65-39.15.06-.29-.14-.64-.29-1.27-2.93-.53-5.48-1.47-4.8-5.63.62-3.78.75-7.6,5.77-7.9,5.45-.32,2.66-5.18,4.21-7.65.69-1.09-.21-3.09.31-4.39,1.46-3.62,2.94-7.36,8.31-6.08,2.2.52,4.62.09,7.7.09-.79,4.52-1.39,8.75-2.3,12.91-1.21,5.51-1.01,5.9,4.46,6.09,1.48.05,2.96.15,4.6.23-.21.69-.5,1.15-.47,1.58.5,7.64-3.43,10.47-10.64,10.34-.95-.02-2.46,2.11-2.82,3.48-2.76,10.42-5.31,20.9-7.89,31.37-.86,3.5,1.49,7.6,5.02,7.87,3.99.31,4.12,2.61,3.67,5.48-.28,1.75-.82,3.45-1.24,5.18-.05.5-.11,1-.16,1.5h.02Z"/>
        <path class="cls-7" d="m174.73,75.76c1.56,7.68-3.55,12.18-10.62,11.51-2.85-.27-5.94-.71-8.36-2.07-4.8-2.71-5.88-7.15-4.47-13.37,1.73-7.62,3.17-15.31,4.87-22.95,1.01-4.52,2.37-8.96,3.34-13.49.27-1.24.05-3.63-.54-3.84-5.63-2.01-3.73-6.02-2.92-9.79.14-.63.16-1.29.29-2.35,6.98.4,8.4-4.1,8.86-9.81.24-3.03,1.39-5.99,2.15-9.05h14.08c-1.1,4.69-2.21,9.05-3.14,13.45-.64,3.04.28,5.22,3.83,5.37,1.47.06,2.95,0,5.18,0-.38,3.38-.32,6.46-1.21,9.24-.39,1.22-2.66,2.38-4.2,2.58-7.44.99-8.15,1.45-9.67,8.61-1.74,8.22-3.43,16.45-5.09,24.69-1.49,7.38.05,9.63,7.63,11.27h0Z"/>
        <path class="cls-4" d="m319.29,23.31v6.4c6.2-2.73,9.8-10.23,17.5-8.08.66,5.76-2.75,10.16-7.85,11.89-2.9.98-6.35,3.21-7.54,5.8-3.31,7.16-5.99,14.68-8.11,22.29-1.94,6.95-3.02,14.16-4.05,21.32-.42,2.94-1.71,3.63-4.23,3.44-.83-.06-1.66,0-2.5,0-6.31,0-7.43-1.62-6.17-7.67,3.38-16.29,6.55-32.62,9.8-48.94.82-4.13,2.11-7.6,7.54-6.5,1.6.32,3.32.05,5.6.05h.01Z"/>
        <path class="cls-3" d="m1.95,86.11c.43-.01.87-.02,1.3-.03-.43.01-.87.02-1.3.03Z"/>
        <path class="cls-8" d="m110.85,33.64c15.38-1.07,19.94,13.47,16.15,23.91-4.12,11.35-11.63,18.22-22.78,17.79-10.81-.42-19.02-10.72-15.73-22.28,2.08-7.31,5.81-14.01,13.48-17.11,2.81-1.14,5.91-1.56,8.88-2.31Z"/>
      </g>
    </g>
  </g>
</svg>